<?xml version="1.0" standalone="no"?>
<!DOCTYPE svg PUBLIC "-//W3C//DTD SVG 20010904//EN"
 "http://www.w3.org/TR/2001/REC-SVG-20010904/DTD/svg10.dtd">
<svg version="1.0" xmlns="http://www.w3.org/2000/svg"
 width="100" height="100" viewBox="0 0 1280.000000 682.000000"
 preserveAspectRatio="xMidYMid meet">
<metadata>
Created by potrace 1.16, written by Peter Selinger 2001-2019
</metadata>
<g transform="translate(0.000000,682.000000) scale(0.100000,-0.100000)"
fill="#000000" stroke="none">
<path d="M6240 6795 c-168 -28 -272 -76 -349 -161 -60 -66 -81 -123 -88 -240
l-6 -92 -59 -6 c-119 -14 -345 -66 -528 -123 -566 -174 -917 -432 -992 -727
-18 -70 -20 -99 -15 -221 4 -77 14 -185 22 -239 8 -55 15 -104 15 -110 0 -7
-23 -12 -60 -13 -116 -4 -215 -45 -296 -125 l-52 -50 -63 20 c-126 40 -173 47
-324 47 -164 0 -230 -13 -315 -63 -108 -62 -250 -236 -315 -384 -31 -72 -39
-78 -115 -78 -75 0 -170 -20 -224 -45 -143 -68 -263 -283 -241 -434 47 -333
223 -486 616 -532 76 -9 166 -9 334 -3 127 5 340 9 475 9 260 0 312 -6 625
-65 83 -15 182 -31 220 -35 81 -7 274 7 459 35 71 11 143 20 161 20 45 0 147
-37 315 -115 500 -232 805 -306 1204 -292 335 11 593 81 946 255 l175 87 390
6 c490 9 626 25 880 106 109 35 112 36 300 37 105 0 312 -3 460 -8 481 -15
737 32 887 163 118 104 158 309 99 502 -35 112 -127 222 -225 267 -48 23 -145
42 -216 42 -76 0 -84 6 -121 83 -79 165 -183 295 -292 365 -97 62 -157 76
-332 77 -152 0 -193 -6 -326 -47 l-66 -21 -41 45 c-73 79 -188 128 -303 128
-36 0 -68 2 -70 5 -3 2 0 37 7 77 7 40 18 143 25 229 19 239 -7 379 -96 532
-192 326 -681 537 -1390 599 l-30 3 -7 89 c-17 227 -162 351 -473 401 -113 19
-477 19 -585 0z m612 -361 c132 -30 208 -81 228 -153 16 -57 12 -133 -9 -174
-12 -23 -15 -37 -7 -37 38 0 380 -55 476 -76 506 -113 871 -297 952 -481 11
-25 17 -48 13 -51 -18 -18 -268 -23 -1565 -28 -1323 -6 -2168 3 -2310 24 -60
9 -63 33 -12 98 156 198 763 413 1405 499 46 6 48 8 33 24 -22 25 -38 117 -30
179 18 148 192 206 586 196 105 -2 195 -10 240 -20z m-1147 -1148 c462 -26
974 -30 1540 -12 595 19 1032 22 1130 6 39 -6 90 -21 115 -33 l45 -22 -1 -140
c-1 -264 -53 -517 -163 -795 -108 -271 -273 -513 -494 -726 -586 -564 -1474
-702 -2212 -345 -208 100 -369 214 -530 376 -382 381 -600 893 -631 1481 -4
95 -3 137 6 153 13 25 78 57 143 71 60 13 731 4 1052 -14z m-1380 -684 c22
-11 55 -34 74 -50 l35 -29 -75 -6 c-199 -16 -251 -83 -216 -279 30 -168 56
-198 330 -366 290 -178 363 -260 380 -427 2 -20 -16 -161 -22 -179 -6 -16 -12
-11 -36 30 -109 187 -260 320 -388 341 l-37 6 0 -45 c0 -57 -43 -142 -91 -180
-64 -52 -174 -46 -216 11 -9 13 -7 19 14 32 39 26 63 70 63 116 0 64 -7 73
-54 73 -66 0 -144 -25 -262 -83 -329 -164 -451 -152 -698 67 l-68 61 -16 -25
c-30 -48 -123 -129 -180 -157 -82 -40 -190 -45 -264 -11 -73 34 -112 69 -142
130 -31 62 -33 105 -6 189 29 96 109 169 185 169 30 0 30 0 4 -53 -12 -23 -24
-68 -26 -102 -7 -94 35 -145 119 -145 46 0 87 51 130 161 100 255 121 305 157
377 71 141 168 244 262 278 154 55 448 6 606 -101 29 -19 54 -35 57 -35 2 0 9
23 15 50 21 99 74 167 153 197 49 19 165 11 213 -15z m4606 18 c86 -24 139
-87 161 -192 7 -32 15 -58 19 -58 3 0 17 8 30 19 13 10 48 31 78 46 114 57
208 82 341 91 291 19 408 -93 586 -558 36 -95 77 -192 91 -216 35 -61 92 -79
152 -47 58 29 70 136 27 230 l-25 55 30 0 c106 0 199 -125 199 -267 0 -68 -25
-118 -85 -171 -63 -55 -128 -76 -221 -70 -103 7 -165 40 -253 134 l-71 76 -67
-62 c-138 -127 -228 -172 -343 -173 -94 -1 -168 22 -347 108 -133 64 -202 85
-272 85 -32 0 -40 -4 -45 -22 -17 -64 1 -117 56 -163 l32 -27 -27 -24 c-15
-13 -43 -26 -62 -30 -114 -21 -213 67 -231 204 l-7 54 -36 -7 c-110 -21 -241
-127 -343 -279 -33 -50 -63 -92 -67 -94 -13 -5 -34 164 -28 218 11 95 86 196
212 285 33 23 124 81 202 129 158 96 239 163 261 216 42 100 56 265 26 321
-23 45 -105 80 -206 87 l-81 5 29 24 c84 70 194 98 285 73z"/>
<path d="M6455 6306 c-5 -2 -43 -9 -83 -16 -88 -14 -132 -45 -132 -92 0 -40
14 -62 54 -87 31 -20 48 -21 262 -21 211 0 232 2 262 20 18 11 40 36 49 55 16
34 16 36 -4 63 -11 15 -46 38 -79 51 -50 20 -80 25 -189 27 -71 2 -134 2 -140
0z"/>
<path d="M3370 4374 c-144 -39 -237 -154 -255 -320 -25 -217 129 -444 301
-444 83 0 178 56 217 128 50 91 44 205 -13 257 -28 25 -94 31 -125 11 -30 -20
-31 -39 -5 -137 27 -102 28 -99 -31 -99 -170 0 -251 114 -205 287 51 191 188
238 395 137 134 -66 238 -196 255 -319 14 -100 9 -95 90 -94 90 1 143 17 169
51 20 26 20 28 2 73 -23 61 -120 188 -187 246 -141 121 -255 186 -385 219 -89
23 -147 24 -223 4z"/>
<path d="M9465 4374 c-193 -47 -453 -245 -551 -420 -67 -120 -34 -163 130
-172 l93 -5 7 63 c10 84 35 148 82 208 145 183 389 253 503 144 70 -68 104
-227 67 -315 -17 -42 -66 -83 -114 -97 -40 -11 -125 -14 -134 -4 -4 3 -2 20 3
37 6 18 16 62 23 99 13 64 13 68 -8 87 -45 43 -126 20 -158 -43 -63 -124 18
-291 161 -333 96 -28 183 -1 257 79 81 88 120 208 111 344 -15 248 -218 389
-472 328z"/>
<path d="M917 2444 c-65 -20 -121 -78 -141 -145 -11 -35 -16 -93 -16 -174 l0
-121 -86 -12 c-320 -47 -570 -269 -650 -577 -21 -82 -24 -272 -5 -350 78 -320
329 -548 657 -595 l82 -12 4 -141 c3 -99 9 -153 20 -178 24 -54 84 -107 141
-124 45 -13 699 -15 5477 -15 4803 0 5432 2 5477 15 68 20 128 80 148 148 10
33 15 93 15 172 l0 122 88 13 c327 49 564 262 653 590 19 69 16 282 -5 359
-86 317 -346 539 -678 577 l-58 7 0 121 c0 66 -4 138 -9 159 -13 55 -58 114
-110 145 l-46 27 -5455 2 c-4783 1 -5461 0 -5503 -13z m1321 -390 c162 -33
269 -92 398 -219 174 -172 244 -352 231 -597 -8 -153 -49 -279 -128 -394 l-31
-46 39 -41 c123 -128 132 -146 108 -203 -17 -42 -51 -64 -97 -64 -34 0 -47 9
-121 80 l-83 79 -38 -25 c-126 -86 -259 -125 -426 -125 -139 -1 -235 19 -345
71 -333 155 -511 513 -436 875 62 301 304 544 606 608 93 20 228 21 323 1z
m1563 6 c154 -29 324 -165 398 -321 84 -174 88 -213 84 -845 -3 -451 2 -429
-106 -429 -103 0 -107 7 -107 180 l0 143 -392 4 c-216 3 -395 3 -398 1 -3 -3
-7 -67 -8 -143 -5 -169 -7 -172 -107 -168 -115 5 -108 -32 -97 534 9 479 9
479 36 569 34 113 75 197 122 255 147 177 362 259 575 220z m2850 -8 c170 -45
325 -193 394 -377 52 -136 55 -179 55 -687 l0 -470 -29 -29 c-25 -24 -38 -29
-80 -29 -38 0 -56 6 -76 23 -27 23 -27 23 -26 165 l2 142 -326 2 c-179 1 -358
3 -397 3 l-73 0 -5 -143 c-6 -170 -7 -172 -107 -172 -109 0 -103 -25 -103 423
0 477 8 579 54 720 19 59 52 132 72 164 89 140 251 251 404 276 60 10 180 4
241 -11z m-978 -24 c15 -6 34 -23 42 -39 30 -57 21 -80 -78 -206 -153 -194
-429 -541 -652 -821 -115 -145 -211 -268 -213 -273 -2 -5 65 -9 160 -9 90 0
289 -3 443 -7 l280 -6 33 -33 c53 -53 39 -130 -30 -158 -36 -16 -1094 -10
-1145 5 -33 10 -60 42 -63 75 -5 47 3 67 58 136 32 40 148 186 257 323 231
291 470 592 572 720 39 49 69 92 67 95 -3 3 -204 7 -446 10 l-440 5 -29 33
c-47 52 -35 127 25 156 27 14 97 15 581 10 349 -4 560 -9 578 -16z m1800 -30
c14 -13 54 -61 89 -108 55 -73 186 -245 450 -590 32 -41 122 -159 200 -263
l143 -187 6 202 c3 112 7 356 8 543 1 316 2 342 20 371 41 68 143 63 177 -8
14 -30 15 -106 7 -746 l-8 -714 -33 -29 c-41 -37 -89 -39 -130 -4 -16 13 -67
75 -114 137 -88 116 -209 273 -333 434 -38 51 -153 201 -255 334 l-185 242 -6
-284 c-3 -155 -7 -399 -8 -540 0 -161 -5 -266 -12 -281 -27 -60 -110 -74 -161
-28 l-33 29 3 629 c1 345 5 674 8 730 6 92 9 105 32 128 33 34 100 35 135 3z
m2202 -9 c282 -49 541 -300 610 -591 22 -94 20 -277 -5 -373 -71 -279 -292
-498 -580 -577 -71 -19 -312 -16 -390 6 -376 102 -628 473 -580 852 25 200 93
337 237 477 191 186 427 254 708 206z m942 -9 c17 -10 37 -28 43 -40 7 -14 10
-116 9 -318 0 -163 1 -299 4 -302 3 -3 122 109 264 249 468 461 417 416 469
416 39 0 50 -5 75 -33 21 -23 29 -43 29 -70 1 -35 -10 -48 -275 -307 -151
-149 -275 -274 -275 -277 0 -4 119 -171 265 -372 145 -200 267 -376 270 -389
10 -37 -20 -93 -60 -112 -35 -16 -77 -13 -103 8 -7 6 -128 170 -269 364 l-256
354 -74 -73 -73 -72 0 -259 0 -259 -34 -34 c-45 -45 -92 -47 -138 -5 l-33 29
3 709 c2 445 7 720 14 741 11 35 58 72 93 72 11 0 34 -9 52 -20z m-9971 -626
c96 -46 99 -190 5 -242 -48 -27 -96 -28 -139 -2 -68 42 -91 124 -52 188 40 66
116 89 186 56z m11618 -3 c63 -42 86 -129 49 -191 -21 -36 -81 -70 -124 -70
-70 0 -139 70 -139 140 0 103 130 176 214 121z"/>
<path d="M1930 1844 c-175 -46 -332 -189 -396 -359 -54 -144 -42 -332 29 -470
45 -87 174 -214 257 -252 133 -63 270 -77 404 -43 82 21 176 66 176 84 0 7
-31 43 -70 81 -38 38 -75 84 -80 101 -23 69 43 144 114 130 21 -4 58 -33 113
-88 l81 -81 24 39 c50 79 71 152 75 269 8 185 -37 304 -162 431 -82 83 -160
130 -258 155 -85 23 -228 24 -307 3z"/>
<path d="M3615 1853 c-85 -18 -181 -84 -231 -160 -84 -127 -103 -216 -104
-490 l0 -213 394 0 393 0 7 203 c9 278 -11 385 -93 507 -78 117 -233 182 -366
153z"/>
<path d="M6409 1847 c-126 -36 -221 -135 -277 -291 -23 -64 -26 -94 -35 -303
-5 -127 -7 -239 -4 -247 6 -14 52 -16 402 -16 l396 0 -3 263 -3 262 -34 83
c-40 102 -115 188 -197 228 -66 32 -173 41 -245 21z"/>
<path d="M9387 1785 c-191 -41 -372 -206 -429 -390 -28 -91 -30 -252 -4 -340
57 -191 227 -355 417 -400 80 -19 218 -19 287 -1 109 29 182 72 266 159 124
126 170 239 170 412 -1 160 -53 283 -169 400 -140 143 -343 203 -538 160z"/>
</g>
</svg>
