<?xml version="1.0" encoding="UTF-8"?>
<!DOCTYPE svg PUBLIC "-//W3C//DTD SVG 1.0//EN" "http://www.w3.org/TR/2001/REC-SVG-20010904/DTD/svg10.dtd">
<!-- Creator: CorelDRAW X8 -->
<svg xmlns="http://www.w3.org/2000/svg" xml:space="preserve" width="40mm" height="40mm" version="1.0" style="shape-rendering:geometricPrecision; text-rendering:geometricPrecision; image-rendering:optimizeQuality; fill-rule:evenodd; clip-rule:evenodd"
viewBox="0 0 1629 1629"
 xmlns:xlink="http://www.w3.org/1999/xlink">
 <defs>
  <style type="text/css">
   <![CDATA[
    .fil2 {fill:#FEFEFE}
    .fil0 {fill:#F9B101}
    .fil1 {fill:#FEFEFE;fill-rule:nonzero}
   ]]>
  </style>
 </defs>
 <g id="Layer_x0020_1">
  <metadata id="CorelCorpID_0Corel-Layer"/>
  <g id="_893450848">
   <g>
    <path class="fil0" d="M771 0l43 0 815 0 0 814c0,450 -365,815 -815,815 -449,0 -814,-365 -814,-815 0,-435 342,-790 771,-813l0 -1z"/>
    <path class="fil1" d="M814 137c187,0 356,76 479,199 122,122 198,291 198,478 0,187 -76,356 -198,479 -123,122 -292,198 -479,198 -187,0 -356,-76 -478,-198 -123,-123 -199,-292 -199,-479 0,-187 76,-356 199,-478 122,-123 291,-199 478,-199zm436 242c-112,-112 -266,-181 -436,-181 -170,0 -324,69 -435,181 -112,111 -181,265 -181,435 0,170 69,324 181,436 111,111 265,180 435,180 170,0 324,-69 436,-180 111,-112 180,-266 180,-436 0,-170 -69,-324 -180,-435z"/>
   </g>
   <g>
    <g>
     <path class="fil2" d="M918 443c0,6 7,11 10,15l16 17c0,0 0,0 1,0 0,0 0,1 1,2 16,17 33,32 49,49l18 19c-5,9 -26,26 -35,37 -5,6 -11,11 -17,17l-47 46c-1,1 -2,2 -3,3 -1,2 -1,3 -3,4 -20,22 -43,41 -62,63 -1,1 -2,2 -3,4 -7,6 -37,35 -40,40 -5,-3 -55,-54 -58,-57 -3,-4 -3,-4 -6,-6l-13 -14c-4,-4 -8,-8 -12,-12 -17,-17 -25,-9 -40,5l-14 14c-2,2 -2,3 -4,5l-179 181c-4,4 -6,7 -9,10 -13,13 -25,25 -38,38 -4,4 -6,6 -9,10 -24,31 -19,73 8,100 4,4 9,8 15,12 2,1 4,2 6,3 23,11 48,8 69,-5 10,-5 19,-16 27,-24 8,-8 16,-16 25,-25l19 -19c7,-8 46,-47 56,-57 3,-3 4,-4 6,-7l19 -19c6,-6 20,-21 26,-25 6,4 19,19 25,25 5,5 8,8 13,13 2,2 4,4 6,6l19 20c4,4 8,8 12,12 7,7 19,22 29,22 11,0 18,-9 25,-16 4,-4 6,-6 10,-10 1,-2 3,-3 4,-5l54 -54c3,-2 2,-3 5,-5l131 -133c0,0 1,0 1,0l73 -75c2,-1 3,-2 5,-4 4,-4 6,-8 10,-11 4,1 10,9 12,12 3,4 6,5 9,9 6,7 53,53 65,65 3,3 8,10 14,10 3,0 4,-4 4,-8l0 -269c0,-16 -18,-32 -34,-32l-263 0c-4,0 -8,1 -8,4z"/>
     <path class="fil2" d="M1047 817l0 373 72 0 0 -442c0,-4 -2,-11 -5,-11 -6,0 -8,4 -11,7 -2,2 -3,2 -5,4 -1,1 -2,3 -4,5 -7,7 -33,32 -36,37 -4,5 -11,17 -11,27z"/>
     <path class="fil2" d="M936 929l0 261 76 0 0 -339c0,-3 -2,-7 -5,-7 -6,0 -24,21 -31,27l-9 11c-12,11 -31,26 -31,47z"/>
     <path class="fil2" d="M824 1050l0 140 77 0 0 -222c0,-7 -2,-13 -10,-10 -3,2 -38,39 -45,45l-11 12c-6,6 -6,5 -9,14 -1,5 -2,14 -2,21z"/>
     <path class="fil2" d="M713 975l0 215 76 0 0 -139c0,-9 -6,-22 -13,-29 -7,-7 -14,-14 -21,-21l-10 -11c-2,-2 -4,-3 -6,-5 -2,-2 -3,-4 -5,-6 -4,-4 -7,-7 -11,-10 -6,-4 -10,-1 -10,6z"/>
     <path class="fil2" d="M600 1060l0 130 78 0 0 -208c0,-3 -1,-6 -2,-8 -4,-13 -20,10 -26,15l-20 20c-13,14 -30,25 -30,51z"/>
     <path class="fil2" d="M480 1173l0 17 86 0 0 -99c0,-4 -2,-8 -6,-8 -6,0 -18,15 -23,20l-20 21c-8,8 -14,14 -22,22 -6,6 -15,18 -15,27z"/>
    </g>
   </g>
  </g>
 </g>
</svg>
