<?xml version="1.0" encoding="UTF-8"?>
<!DOCTYPE svg PUBLIC "-//W3C//DTD SVG 1.0//EN" "http://www.w3.org/TR/2001/REC-SVG-20010904/DTD/svg10.dtd">
<!-- Creator: CorelDRAW X8 -->
<svg xmlns="http://www.w3.org/2000/svg" xml:space="preserve" width="40mm" height="40mm" version="1.0" style="shape-rendering:geometricPrecision; text-rendering:geometricPrecision; image-rendering:optimizeQuality; fill-rule:evenodd; clip-rule:evenodd"
viewBox="0 0 1629 1629"
 xmlns:xlink="http://www.w3.org/1999/xlink">
 <defs>
  <style type="text/css">
   <![CDATA[
    .fil2 {fill:#FEFEFE}
    .fil0 {fill:#F9B101}
    .fil1 {fill:#FEFEFE;fill-rule:nonzero}
   ]]>
  </style>
 </defs>
 <g id="Layer_x0020_1">
  <metadata id="CorelCorpID_0Corel-Layer"/>
  <g id="_893497088">
   <g>
    <path class="fil0" d="M771 0l43 0 815 0 0 814c0,450 -365,815 -815,815 -449,0 -814,-365 -814,-815 0,-435 342,-790 771,-813l0 -1z"/>
    <path class="fil1" d="M814 137c187,0 356,76 479,199 122,122 198,291 198,478 0,187 -76,356 -198,479 -123,122 -292,198 -479,198 -187,0 -356,-76 -478,-198 -123,-123 -199,-292 -199,-479 0,-187 76,-356 199,-478 122,-123 291,-199 478,-199zm436 242c-112,-112 -266,-181 -436,-181 -170,0 -324,69 -435,181 -112,111 -181,265 -181,435 0,170 69,324 181,436 111,111 265,180 435,180 170,0 324,-69 436,-180 111,-112 180,-266 180,-436 0,-170 -69,-324 -180,-435z"/>
   </g>
   <g>
    <g>
     <path class="fil2" d="M469 1019c0,-53 67,-83 115,-83 35,0 63,6 87,22 35,23 53,61 26,97 -22,29 -66,46 -102,46 -35,0 -58,-5 -87,-23 -9,-4 -20,-15 -26,-23 -6,-8 -13,-21 -13,-36zm576 82c-34,0 -61,-6 -86,-22 -19,-12 -40,-33 -40,-57 0,-17 3,-29 13,-42 22,-27 62,-44 101,-44l12 0c28,0 59,11 76,22 8,6 11,8 17,14 0,0 1,0 1,0 0,1 0,1 0,1 0,0 0,0 0,0 1,1 1,1 2,2 17,18 23,39 15,63 -14,39 -70,63 -111,63zm-231 -240c5,0 13,0 18,2 4,1 11,3 14,6 39,24 7,60 -26,60 -16,0 -28,0 -42,-10 -30,-23 -5,-58 36,-58zm-294 -98c-4,1 -11,6 -14,8 -10,6 -15,10 -24,19 -11,11 -20,24 -25,40 -3,8 -26,131 -29,146 -5,24 -6,22 -6,47 0,25 12,47 24,63 7,10 18,19 28,26 10,8 12,8 22,14 3,2 7,4 11,6 18,8 51,16 73,16 35,0 59,-2 90,-16 10,-4 18,-9 28,-15 25,-15 48,-43 56,-74 6,-22 3,-57 3,-83l12 4c4,1 9,3 14,4 25,5 51,4 76,-4 4,-1 8,-3 13,-4 0,24 -3,65 2,83 4,12 8,22 13,31 2,2 3,4 5,6 1,2 2,4 4,6 2,3 3,4 5,6 2,2 3,4 6,6l23 19c27,18 66,31 100,31 34,0 46,-1 78,-11 10,-4 16,-7 25,-11 11,-5 22,-14 32,-21 7,-7 19,-20 25,-29 10,-15 17,-35 17,-58 0,-17 -15,-86 -19,-107l-14 -71c-2,-11 -7,-22 -12,-30 -11,-18 -31,-36 -50,-45 -4,-2 -3,-3 -4,-7 -1,-7 -2,-13 -2,-19l-10 -75c-2,-17 0,-19 -7,-36 -7,-17 -26,-35 -42,-43 -31,-15 -57,-19 -92,-15 -21,3 -49,13 -64,25 -3,2 -5,4 -8,5 -13,10 -28,31 -28,49l1 22c-23,-5 -20,-6 -46,-6 -15,0 -26,4 -37,6 0,-21 5,-33 -14,-57 -28,-34 -84,-50 -127,-44 -18,2 -32,6 -47,13l-19 12c-16,12 -28,29 -32,50 0,3 0,6 0,9l-12 90c-1,7 -2,13 -2,19z"/>
     <path class="fil2" d="M598 545c0,3 3,7 6,7l18 -3c23,-4 51,-2 73,3 27,7 40,21 40,-2 1,-13 4,-21 -1,-35 -4,-8 -12,-16 -20,-21 -4,-2 -9,-5 -13,-7 -28,-10 -63,-9 -85,11 -12,10 -15,18 -17,32 0,5 -1,9 -1,15z"/>
     <path class="fil2" d="M891 525l2 32c7,16 28,-10 77,-10 19,0 25,-1 44,3 3,1 17,5 17,-7 -1,-7 -3,-24 -6,-30 -2,-4 -5,-8 -8,-11 -9,-11 -31,-21 -51,-21 -21,0 -35,3 -50,12 -10,6 -25,20 -25,32z"/>
    </g>
   </g>
  </g>
 </g>
</svg>
