<?xml version="1.0" encoding="UTF-8"?>
<!DOCTYPE svg PUBLIC "-//W3C//DTD SVG 1.0//EN" "http://www.w3.org/TR/2001/REC-SVG-20010904/DTD/svg10.dtd">
<!-- Creator: CorelDRAW X8 -->
<svg xmlns="http://www.w3.org/2000/svg" xml:space="preserve" width="40mm" height="40mm" version="1.0" style="shape-rendering:geometricPrecision; text-rendering:geometricPrecision; image-rendering:optimizeQuality; fill-rule:evenodd; clip-rule:evenodd"
viewBox="0 0 1629 1629"
 xmlns:xlink="http://www.w3.org/1999/xlink">
 <defs>
  <style type="text/css">
   <![CDATA[
    .fil0 {fill:#F9B101}
    .fil1 {fill:#FEFEFE;fill-rule:nonzero}
   ]]>
  </style>
 </defs>
 <g id="Layer_x0020_1">
  <metadata id="CorelCorpID_0Corel-Layer"/>
  <g id="_893465824">
   <g>
    <path class="fil0" d="M771 0l43 0 815 0 0 814c0,450 -365,815 -815,815 -449,0 -814,-365 -814,-815 0,-435 342,-790 771,-813l0 -1z"/>
    <path class="fil1" d="M814 137c187,0 356,76 479,199 122,122 198,291 198,478 0,187 -76,356 -198,479 -123,122 -292,198 -479,198 -187,0 -356,-76 -478,-198 -123,-123 -199,-292 -199,-479 0,-187 76,-356 199,-478 122,-123 291,-199 478,-199zm436 242c-112,-112 -266,-181 -436,-181 -170,0 -324,69 -435,181 -112,111 -181,265 -181,435 0,170 69,324 181,436 111,111 265,180 435,180 170,0 324,-69 436,-180 111,-112 180,-266 180,-436 0,-170 -69,-324 -180,-435z"/>
   </g>
   <g>
    <g>
     <path class="fil1" d="M805 873l-19 0c-10,0 -19,-8 -19,-18 0,-4 2,-8 5,-10 11,-11 20,-26 27,-41 1,1 3,1 5,1 10,0 23,-23 23,-40 0,-16 -2,-29 -12,-29 -2,0 -3,0 -4,1 -1,-44 -12,-99 -79,-99 -70,0 -79,55 -79,98 -1,0 -2,0 -3,0 -11,0 -12,13 -12,29 0,17 12,40 23,40 1,0 3,0 4,-1 6,16 16,30 27,41 2,2 4,6 4,10 0,10 -8,18 -18,18l-19 0c-41,0 -75,33 -75,74l0 20c0,13 11,24 24,24l247 0c13,0 24,-11 24,-24l0 -20c0,-41 -33,-74 -74,-74z"/>
     <path class="fil1" d="M1027 669l-208 0c6,13 11,29 12,50 5,2 8,7 11,12l185 0c9,0 17,-8 17,-17l0 -28c0,-9 -8,-17 -17,-17z"/>
     <path class="fil1" d="M1027 782l-181 0c-5,19 -17,38 -34,44 0,1 -1,1 -1,2l0 17 216 0c9,0 17,-8 17,-18l0 -27c0,-10 -8,-18 -17,-18z"/>
     <path class="fil1" d="M1027 896l-141 0c9,15 14,32 14,51l0 11 127 0c9,0 17,-8 17,-17l0 -28c0,-9 -8,-17 -17,-17z"/>
     <path class="fil1" d="M1102 496l-575 0c-59,0 -107,47 -107,106l0 424c0,59 48,107 107,107l575 0c59,0 106,-48 106,-107l0 -424c0,-59 -47,-106 -106,-106zm56 530l0 0c0,31 -25,56 -56,56l-575 0c-31,0 -56,-25 -56,-56l0 -424c0,-31 25,-56 56,-56l575 0c31,0 56,25 56,56l0 424z"/>
    </g>
   </g>
  </g>
 </g>
</svg>
