<?xml version="1.0" encoding="UTF-8"?>
<!DOCTYPE svg PUBLIC "-//W3C//DTD SVG 1.0//EN" "http://www.w3.org/TR/2001/REC-SVG-20010904/DTD/svg10.dtd">
<!-- Creator: CorelDRAW X8 -->
<svg xmlns="http://www.w3.org/2000/svg" xml:space="preserve" width="40mm" height="40mm" version="1.0" style="shape-rendering:geometricPrecision; text-rendering:geometricPrecision; image-rendering:optimizeQuality; fill-rule:evenodd; clip-rule:evenodd"
viewBox="0 0 1629 1629"
 xmlns:xlink="http://www.w3.org/1999/xlink">
 <defs>
  <style type="text/css">
   <![CDATA[
    .fil2 {fill:#FEFEFE}
    .fil0 {fill:#F9B101}
    .fil1 {fill:#FEFEFE;fill-rule:nonzero}
   ]]>
  </style>
 </defs>
 <g id="Layer_x0020_1">
  <metadata id="CorelCorpID_0Corel-Layer"/>
  <g id="_893484320">
   <g>
    <path class="fil0" d="M771 0l43 0 815 0 0 814c0,450 -365,815 -815,815 -449,0 -814,-365 -814,-815 0,-435 342,-790 771,-813l0 -1z"/>
    <path class="fil1" d="M814 137c187,0 356,76 479,199 122,122 198,291 198,478 0,187 -76,356 -198,479 -123,122 -292,198 -479,198 -187,0 -356,-76 -478,-198 -123,-123 -199,-292 -199,-479 0,-187 76,-356 199,-478 122,-123 291,-199 478,-199zm436 242c-112,-112 -266,-181 -436,-181 -170,0 -324,69 -435,181 -112,111 -181,265 -181,435 0,170 69,324 181,436 111,111 265,180 435,180 170,0 324,-69 436,-180 111,-112 180,-266 180,-436 0,-170 -69,-324 -180,-435z"/>
   </g>
   <g>
    <g>
     <path class="fil2" d="M915 734l32 4c47,8 96,23 135,49 5,3 7,5 11,8 5,4 6,3 7,12l1 17c2,21 0,65 -2,86 -5,32 -13,62 -25,91l-13 26c-2,4 -4,8 -7,12 -2,4 -4,8 -7,12 -15,24 -43,59 -66,78 -2,1 -3,3 -6,4 -16,13 -25,21 -44,33 -16,10 -33,18 -52,25 -49,20 -89,17 -138,-3 -11,-5 -21,-9 -31,-15 -5,-3 -9,-6 -14,-9l-27 -18c-14,-11 -25,-20 -37,-33 -8,-8 -40,-42 -42,-50 4,2 8,4 13,5 27,11 71,22 99,24 5,0 12,0 17,1 17,3 8,-4 18,8 1,2 3,3 4,5 3,3 6,6 10,8 59,38 134,2 134,-37l0 -7c0,-16 -16,-32 -27,-39 -28,-16 -66,-19 -95,-4 -9,4 -26,14 -29,24 -19,0 -69,-8 -85,-13 -13,-4 -24,-7 -36,-13 -16,-6 -33,-17 -46,-27 -8,-7 -19,-16 -22,-26 -16,-48 -18,-80 -18,-131 0,-7 1,-9 1,-16 31,-7 49,-11 77,-33 2,-2 4,-3 6,-5 27,-23 47,-50 60,-84 8,-23 12,-41 13,-65 0,-4 1,-5 1,-10 3,1 4,3 6,6l16 22c11,14 25,27 38,38 5,4 10,8 15,11 11,8 20,13 33,19 36,18 109,35 131,48l16 10c-1,-12 -13,-33 -21,-43 -2,-3 -3,-3 -4,-5zm-438 18l-31 0c0,-30 3,-56 8,-82 5,-24 11,-45 20,-66 13,-34 32,-65 58,-91 7,-7 13,-13 21,-20 2,-1 3,-3 6,-4 47,-36 99,-56 158,-66 60,-10 135,-10 195,0 56,10 122,33 164,70 6,5 19,17 23,22l10 11c19,22 37,53 47,81 8,20 15,43 19,67 1,5 2,12 3,18 3,18 4,32 4,50 0,5 1,5 1,10l-31 0c0,-17 -17,-76 -24,-93 -3,-9 -7,-18 -11,-27 -5,-9 -9,-17 -13,-26 -14,-25 -31,-45 -51,-66 -4,-3 -7,-5 -11,-9 -14,-13 -41,-30 -58,-39 -9,-4 -18,-8 -27,-12 -51,-18 -93,-23 -153,-23 -57,0 -115,13 -159,35 -9,5 -17,9 -25,14 -8,5 -16,11 -23,16 -4,3 -7,6 -11,9l-37 40c-17,22 -32,48 -43,74 -11,26 -22,63 -26,90 -1,5 -3,12 -3,17zm-81 10c-13,3 -32,27 -38,44 -2,6 -4,15 -4,23l0 97c0,15 7,31 13,40 4,7 14,17 20,21 19,13 29,16 53,16 18,0 36,0 55,0l10 25c11,26 22,45 38,68 4,7 25,34 31,40 2,2 3,3 4,5l41 39c4,3 7,6 10,8 45,36 118,74 177,74 41,0 66,-6 102,-20 9,-4 17,-7 25,-11 39,-20 55,-33 85,-58 2,-2 3,-2 5,-4 2,-2 3,-3 4,-5l35 -36 24 -31c10,-16 30,-48 38,-68 2,-5 9,-21 10,-26 17,0 64,1 79,-2 20,-5 36,-17 48,-33 6,-8 14,-26 14,-40l0 -102c0,-14 -7,-28 -14,-39 -3,-4 -4,-4 -6,-7 -3,-4 -4,-5 -7,-7 -2,-2 -5,-4 -7,-6 -3,-2 -6,-4 -9,-6 0,-51 -6,-104 -22,-151 -9,-26 -13,-36 -26,-60 -2,-3 -3,-6 -5,-9 -8,-14 -19,-31 -30,-43 -20,-24 -38,-42 -65,-60 -25,-16 -45,-27 -73,-38 -3,-2 -6,-2 -9,-4 -26,-10 -52,-15 -79,-20 -25,-5 -65,-9 -92,-9 -66,0 -101,1 -165,17 -14,4 -25,8 -38,12 -38,13 -73,33 -104,58l-44 43c-61,72 -84,173 -84,265z"/>
     <path class="fil2" d="M694 906c53,0 65,-70 21,-90 -19,-8 -38,-4 -54,9 -12,11 -18,36 -10,53 8,16 23,28 43,28z"/>
     <path class="fil2" d="M886 858c0,42 52,64 81,34 20,-20 19,-48 1,-66 -3,-3 -9,-7 -13,-10 -19,-8 -39,-4 -54,9 -2,2 -3,4 -5,6 -5,7 -10,19 -10,27z"/>
    </g>
   </g>
  </g>
 </g>
</svg>
